<?xml version="1.0" ?><svg height="32" id="svg5" version="1.1" viewBox="0 0 31.999998 32" width="31.999998" xmlns="http://www.w3.org/2000/svg" xmlns:inkscape="http://www.inkscape.org/namespaces/inkscape" xmlns:sodipodi="http://sodipodi.sourceforge.net/DTD/sodipodi-0.dtd" xmlns:svg="http://www.w3.org/2000/svg"><defs id="defs2"/><g id="layer1" transform="translate(36,-148)"><path d="M -13 150 C -14.644699 150 -16 151.3553 -16 153 C -16 154.6447 -14.644699 156 -13 156 L -12 156 L -12 159.58594 L -15.414062 163 L -20 163 L -20 162 C -20 160.9093 -20.909299 160 -22 160 L -32 160 C -33.090701 160 -34 160.9093 -34 162 L -34 165 C -34 166.0907 -33.090701 167 -32 167 L -28 167 L -28 175 A 1.0001 1.0001 0 0 0 -27 176 L -15.826172 176 C -15.410312 177.16014 -14.294987 178 -13 178 L -9 178 C -7.3553005 178 -6 176.6447 -6 175 C -6 173.3553 -7.3553005 172 -9 172 L -10 172 L -10 168.41406 L -6.2929688 164.70703 A 1.0001 1.0001 0 0 0 -6.2929688 163.29297 L -10 159.58594 L -10 156 L -9 156 C -7.3553005 156 -6 154.6447 -6 153 C -6 151.3553 -7.3553005 150 -9 150 L -13 150 z M -13 152 L -9 152 C -8.4287039 152 -8 152.4287 -8 153 C -8 153.5713 -8.4287039 154 -9 154 L -13 154 C -13.571296 154 -14 153.5713 -14 153 C -14 152.4287 -13.571296 152 -13 152 z M -11 161.41406 L -8.4140625 164 L -11 166.58594 L -13.585938 164 L -11 161.41406 z M -32 162 L -22 162 L -22 165 L -27 165 L -32 165 L -32 162 z M -20 165 L -15.414062 165 L -12 168.41406 L -12 172 L -13 172 C -14.294987 172 -15.410312 172.83986 -15.826172 174 L -26 174 L -26 167 L -22 167 C -20.909299 167 -20 166.0907 -20 165 z M -13 174 L -9 174 C -8.4287039 174 -8 174.4287 -8 175 C -8 175.5713 -8.4287039 176 -9 176 L -13 176 C -13.571296 176 -14 175.5713 -14 175 C -14 174.4287 -13.571296 174 -13 174 z " id="rect1659" style="color:#000000;fill:#002cba;fill-opacity:1;fill-rule:evenodd;stroke-linecap:round;stroke-linejoin:round;stroke-miterlimit:4.1;-inkscape-stroke:none"/><path d="m -29,151 a 1,1 0 0 0 -1,1 1,1 0 0 0 1,1 h 5 a 1,1 0 0 0 1,-1 1,1 0 0 0 -1,-1 z" id="path7365" style="color:#000000;fill:#00c89f;fill-opacity:1;fill-rule:evenodd;stroke-linecap:round;stroke-linejoin:round;stroke-miterlimit:4.1;-inkscape-stroke:none"/><path d="m -33,151 a 1,1 0 0 0 -1,1 1,1 0 0 0 1,1 1,1 0 0 0 1,-1 1,1 0 0 0 -1,-1 z" id="path7369" style="color:#000000;fill:#00c89f;fill-opacity:1;fill-rule:evenodd;stroke-linecap:round;stroke-linejoin:round;stroke-miterlimit:4.1;-inkscape-stroke:none"/><path d="m -29,155 a 1,1 0 0 0 -1,1 1,1 0 0 0 1,1 h 5 a 1,1 0 0 0 1,-1 1,1 0 0 0 -1,-1 z" id="path8834" style="color:#000000;fill:#00c89f;fill-opacity:1;fill-rule:evenodd;stroke-linecap:round;stroke-linejoin:round;stroke-miterlimit:4.1;-inkscape-stroke:none"/><path d="m -33,155 a 1,1 0 0 0 -1,1 1,1 0 0 0 1,1 1,1 0 0 0 1,-1 1,1 0 0 0 -1,-1 z" id="path8836" style="color:#000000;fill:#00c89f;fill-opacity:1;fill-rule:evenodd;stroke-linecap:round;stroke-linejoin:round;stroke-miterlimit:4.1;-inkscape-stroke:none"/></g></svg>